<svg width="280" height="250" viewBox="0 0 280 250" fill="none" xmlns="http://www.w3.org/2000/svg">
<rect width="280" height="250" rx="5" fill="#FAFAFA"/>
<path d="M68.08 163.14C67.1467 163.14 66.3067 162.98 65.56 162.66C64.8133 162.327 64.2267 161.86 63.8 161.26C63.3733 160.66 63.16 159.96 63.16 159.16H65.6C65.6533 159.76 65.8867 160.253 66.3 160.64C66.7267 161.027 67.32 161.22 68.08 161.22C68.8667 161.22 69.48 161.033 69.92 160.66C70.36 160.273 70.58 159.78 70.58 159.18C70.58 158.713 70.44 158.333 70.16 158.04C69.8933 157.747 69.5533 157.52 69.14 157.36C68.74 157.2 68.18 157.027 67.46 156.84C66.5533 156.6 65.8133 156.36 65.24 156.12C64.68 155.867 64.2 155.48 63.8 154.96C63.4 154.44 63.2 153.747 63.2 152.88C63.2 152.08 63.4 151.38 63.8 150.78C64.2 150.18 64.76 149.72 65.48 149.4C66.2 149.08 67.0333 148.92 67.98 148.92C69.3267 148.92 70.4267 149.26 71.28 149.94C72.1467 150.607 72.6267 151.527 72.72 152.7H70.2C70.16 152.193 69.92 151.76 69.48 151.4C69.04 151.04 68.46 150.86 67.74 150.86C67.0867 150.86 66.5533 151.027 66.14 151.36C65.7267 151.693 65.52 152.173 65.52 152.8C65.52 153.227 65.6467 153.58 65.9 153.86C66.1667 154.127 66.5 154.34 66.9 154.5C67.3 154.66 67.8467 154.833 68.54 155.02C69.46 155.273 70.2067 155.527 70.78 155.78C71.3667 156.033 71.86 156.427 72.26 156.96C72.6733 157.48 72.88 158.18 72.88 159.06C72.88 159.767 72.6867 160.433 72.3 161.06C71.9267 161.687 71.3733 162.193 70.64 162.58C69.92 162.953 69.0667 163.14 68.08 163.14ZM90.3703 151.98L86.9503 163H84.5503L82.3303 154.86L80.1103 163H77.7103L74.2703 151.98H76.5903L78.8903 160.84L81.2303 151.98H83.6103L85.8503 160.8L88.1303 151.98H90.3703ZM93.2342 150.52C92.8209 150.52 92.4742 150.38 92.1942 150.1C91.9142 149.82 91.7742 149.473 91.7742 149.06C91.7742 148.647 91.9142 148.3 92.1942 148.02C92.4742 147.74 92.8209 147.6 93.2342 147.6C93.6342 147.6 93.9742 147.74 94.2542 148.02C94.5342 148.3 94.6742 148.647 94.6742 149.06C94.6742 149.473 94.5342 149.82 94.2542 150.1C93.9742 150.38 93.6342 150.52 93.2342 150.52ZM94.3542 151.98V163H92.0742V151.98H94.3542ZM110.688 151.8C111.554 151.8 112.328 151.98 113.008 152.34C113.701 152.7 114.241 153.233 114.628 153.94C115.028 154.647 115.228 155.5 115.228 156.5V163H112.968V156.84C112.968 155.853 112.721 155.1 112.228 154.58C111.734 154.047 111.061 153.78 110.208 153.78C109.354 153.78 108.674 154.047 108.168 154.58C107.674 155.1 107.428 155.853 107.428 156.84V163H105.168V156.84C105.168 155.853 104.921 155.1 104.428 154.58C103.934 154.047 103.261 153.78 102.408 153.78C101.554 153.78 100.874 154.047 100.368 154.58C99.8743 155.1 99.6277 155.853 99.6277 156.84V163H97.3477V151.98H99.6277V153.24C100.001 152.787 100.474 152.433 101.048 152.18C101.621 151.927 102.234 151.8 102.888 151.8C103.768 151.8 104.554 151.987 105.248 152.36C105.941 152.733 106.474 153.273 106.848 153.98C107.181 153.313 107.701 152.787 108.408 152.4C109.114 152 109.874 151.8 110.688 151.8ZM131.469 151.8C132.336 151.8 133.109 151.98 133.789 152.34C134.482 152.7 135.022 153.233 135.409 153.94C135.809 154.647 136.009 155.5 136.009 156.5V163H133.749V156.84C133.749 155.853 133.502 155.1 133.009 154.58C132.516 154.047 131.842 153.78 130.989 153.78C130.136 153.78 129.456 154.047 128.949 154.58C128.456 155.1 128.209 155.853 128.209 156.84V163H125.949V156.84C125.949 155.853 125.702 155.1 125.209 154.58C124.716 154.047 124.042 153.78 123.189 153.78C122.336 153.78 121.656 154.047 121.149 154.58C120.656 155.1 120.409 155.853 120.409 156.84V163H118.129V151.98H120.409V153.24C120.782 152.787 121.256 152.433 121.829 152.18C122.402 151.927 123.016 151.8 123.669 151.8C124.549 151.8 125.336 151.987 126.029 152.36C126.722 152.733 127.256 153.273 127.629 153.98C127.962 153.313 128.482 152.787 129.189 152.4C129.896 152 130.656 151.8 131.469 151.8ZM140.07 150.52C139.657 150.52 139.31 150.38 139.03 150.1C138.75 149.82 138.61 149.473 138.61 149.06C138.61 148.647 138.75 148.3 139.03 148.02C139.31 147.74 139.657 147.6 140.07 147.6C140.47 147.6 140.81 147.74 141.09 148.02C141.37 148.3 141.51 148.647 141.51 149.06C141.51 149.473 141.37 149.82 141.09 150.1C140.81 150.38 140.47 150.52 140.07 150.52ZM141.19 151.98V163H138.91V151.98H141.19ZM149.744 151.8C150.61 151.8 151.384 151.98 152.064 152.34C152.757 152.7 153.297 153.233 153.684 153.94C154.07 154.647 154.264 155.5 154.264 156.5V163H152.004V156.84C152.004 155.853 151.757 155.1 151.264 154.58C150.77 154.047 150.097 153.78 149.244 153.78C148.39 153.78 147.71 154.047 147.204 154.58C146.71 155.1 146.464 155.853 146.464 156.84V163H144.184V151.98H146.464V153.24C146.837 152.787 147.31 152.433 147.884 152.18C148.47 151.927 149.09 151.8 149.744 151.8ZM161.612 151.8C162.465 151.8 163.219 151.973 163.872 152.32C164.539 152.653 165.059 153.073 165.432 153.58V151.98H167.732V163.18C167.732 164.193 167.519 165.093 167.092 165.88C166.665 166.68 166.045 167.307 165.232 167.76C164.432 168.213 163.472 168.44 162.352 168.44C160.859 168.44 159.619 168.087 158.632 167.38C157.645 166.687 157.085 165.74 156.952 164.54H159.212C159.385 165.113 159.752 165.573 160.312 165.92C160.885 166.28 161.565 166.46 162.352 166.46C163.272 166.46 164.012 166.18 164.572 165.62C165.145 165.06 165.432 164.247 165.432 163.18V161.34C165.045 161.86 164.519 162.3 163.852 162.66C163.199 163.007 162.452 163.18 161.612 163.18C160.652 163.18 159.772 162.94 158.972 162.46C158.185 161.967 157.559 161.287 157.092 160.42C156.639 159.54 156.412 158.547 156.412 157.44C156.412 156.333 156.639 155.353 157.092 154.5C157.559 153.647 158.185 152.987 158.972 152.52C159.772 152.04 160.652 151.8 161.612 151.8ZM165.432 157.48C165.432 156.72 165.272 156.06 164.952 155.5C164.645 154.94 164.239 154.513 163.732 154.22C163.225 153.927 162.679 153.78 162.092 153.78C161.505 153.78 160.959 153.927 160.452 154.22C159.945 154.5 159.532 154.92 159.212 155.48C158.905 156.027 158.752 156.68 158.752 157.44C158.752 158.2 158.905 158.867 159.212 159.44C159.532 160.013 159.945 160.453 160.452 160.76C160.972 161.053 161.519 161.2 162.092 161.2C162.679 161.2 163.225 161.053 163.732 160.76C164.239 160.467 164.645 160.04 164.952 159.48C165.272 158.907 165.432 158.24 165.432 157.48ZM185.642 153.24C185.642 153.947 185.475 154.613 185.142 155.24C184.809 155.867 184.275 156.38 183.542 156.78C182.809 157.167 181.869 157.36 180.722 157.36H178.202V163H175.922V149.1H180.722C181.789 149.1 182.689 149.287 183.422 149.66C184.169 150.02 184.722 150.513 185.082 151.14C185.455 151.767 185.642 152.467 185.642 153.24ZM180.722 155.5C181.589 155.5 182.235 155.307 182.662 154.92C183.089 154.52 183.302 153.96 183.302 153.24C183.302 151.72 182.442 150.96 180.722 150.96H178.202V155.5H180.722ZM192.596 163.18C191.556 163.18 190.616 162.947 189.776 162.48C188.936 162 188.276 161.333 187.796 160.48C187.316 159.613 187.076 158.613 187.076 157.48C187.076 156.36 187.323 155.367 187.816 154.5C188.31 153.633 188.983 152.967 189.836 152.5C190.69 152.033 191.643 151.8 192.696 151.8C193.75 151.8 194.703 152.033 195.556 152.5C196.41 152.967 197.083 153.633 197.576 154.5C198.07 155.367 198.316 156.36 198.316 157.48C198.316 158.6 198.063 159.593 197.556 160.46C197.05 161.327 196.356 162 195.476 162.48C194.61 162.947 193.65 163.18 192.596 163.18ZM192.596 161.2C193.183 161.2 193.73 161.06 194.236 160.78C194.756 160.5 195.176 160.08 195.496 159.52C195.816 158.96 195.976 158.28 195.976 157.48C195.976 156.68 195.823 156.007 195.516 155.46C195.21 154.9 194.803 154.48 194.296 154.2C193.79 153.92 193.243 153.78 192.656 153.78C192.07 153.78 191.523 153.92 191.016 154.2C190.523 154.48 190.13 154.9 189.836 155.46C189.543 156.007 189.396 156.68 189.396 157.48C189.396 158.667 189.696 159.587 190.296 160.24C190.91 160.88 191.676 161.2 192.596 161.2ZM205.35 163.18C204.31 163.18 203.37 162.947 202.53 162.48C201.69 162 201.03 161.333 200.55 160.48C200.07 159.613 199.83 158.613 199.83 157.48C199.83 156.36 200.077 155.367 200.57 154.5C201.064 153.633 201.737 152.967 202.59 152.5C203.444 152.033 204.397 151.8 205.45 151.8C206.504 151.8 207.457 152.033 208.31 152.5C209.164 152.967 209.837 153.633 210.33 154.5C210.824 155.367 211.07 156.36 211.07 157.48C211.07 158.6 210.817 159.593 210.31 160.46C209.804 161.327 209.11 162 208.23 162.48C207.364 162.947 206.404 163.18 205.35 163.18ZM205.35 161.2C205.937 161.2 206.484 161.06 206.99 160.78C207.51 160.5 207.93 160.08 208.25 159.52C208.57 158.96 208.73 158.28 208.73 157.48C208.73 156.68 208.577 156.007 208.27 155.46C207.964 154.9 207.557 154.48 207.05 154.2C206.544 153.92 205.997 153.78 205.41 153.78C204.824 153.78 204.277 153.92 203.77 154.2C203.277 154.48 202.884 154.9 202.59 155.46C202.297 156.007 202.15 156.68 202.15 157.48C202.15 158.667 202.45 159.587 203.05 160.24C203.664 160.88 204.43 161.2 205.35 161.2ZM215.604 148.2V163H213.324V148.2H215.604Z" fill="#7C6A46"/>
<path d="M149.767 79C149.36 79 148.185 79.5345 148.185 79.5345L136.105 85.6436C134.495 86.28 133.858 88.8473 134.825 90.1309L138.353 95.2509L123.916 102.629L131.182 108.084L140.28 102.629L149.371 108.084L153.015 104.44L142.105 89.8945L151.404 84.3309C153.324 83.3636 153.015 81.7709 153.015 80.8036C153 80.04 151.705 79 149.767 79ZM157.553 89.9091C156.717 89.9084 155.889 90.0723 155.116 90.3915C154.344 90.7108 153.642 91.1791 153.05 91.7696C152.458 92.3602 151.989 93.0615 151.668 93.8336C151.348 94.6056 151.183 95.4332 151.182 96.2691C151.181 97.105 151.345 97.9329 151.664 98.7055C151.984 99.478 152.452 100.18 153.042 100.772C153.633 101.363 154.334 101.833 155.106 102.153C155.878 102.474 156.706 102.639 157.542 102.64C159.23 102.641 160.85 101.972 162.044 100.779C163.239 99.5867 163.911 97.9682 163.913 96.28C163.914 94.5918 163.245 92.9721 162.052 91.7773C160.859 90.5826 159.241 89.9105 157.553 89.9091ZM122.091 108.091L113 113.545V119L122.091 113.545L131.182 119L140.28 113.545L149.371 119L156.636 113.545L167.545 119V113.545L156.636 108.091L149.371 113.545L140.28 108.091L131.182 113.545L122.091 108.091Z" fill="#7C6A46"/>
</svg>
