<svg width="212" height="150" viewBox="0 0 212 150" fill="none" xmlns="http://www.w3.org/2000/svg">
<path d="M56.0294 100.147L37.5 81.1765C46.1765 72.5 56.3618 65.6265 68.0559 60.5559C79.75 55.4853 92.3588 52.9471 105.882 52.9412C119.412 52.9412 132.024 55.5147 143.718 60.6618C155.412 65.8088 165.594 72.7941 174.265 81.6176L155.735 100.147C149.265 93.6765 141.765 88.6029 133.235 84.9265C124.706 81.25 115.588 79.4118 105.882 79.4118C96.1765 79.4118 87.0588 81.25 78.5294 84.9265C70 88.6029 62.5 93.6765 56.0294 100.147ZM18.5294 62.6471L0 44.1176C13.5294 30.2941 29.3382 19.4853 47.4265 11.6912C65.5147 3.89706 85 0 105.882 0C126.765 0 146.25 3.89706 164.338 11.6912C182.426 19.4853 198.235 30.2941 211.765 44.1176L193.235 62.6471C181.912 51.3235 168.785 42.4618 153.856 36.0618C138.926 29.6618 122.935 26.4647 105.882 26.4706C88.8235 26.4706 72.8294 29.6706 57.9 36.0706C42.9706 42.4706 29.8471 51.3294 18.5294 62.6471ZM105.882 150L136.985 118.676C133.015 114.706 128.382 111.579 123.088 109.297C117.794 107.015 112.059 105.876 105.882 105.882C99.7059 105.882 93.9706 107.024 88.6765 109.306C83.3824 111.588 78.75 114.712 74.7794 118.676L105.882 150Z" fill="#7C6A46"/>
</svg>
