<svg width="178" height="179" viewBox="0 0 178 179" fill="none" xmlns="http://www.w3.org/2000/svg">
<path d="M32.2059 55.8392L37.0778 50.8737C42.5118 45.4396 51.5061 45.4396 57.1275 51.2484L57.3149 51.5295C61.9057 56.214 67.9955 58.4626 74.6475 59.1184C83.7354 59.9616 92.5423 64.8335 98.3511 73.6403C104.722 83.7589 104.628 97.2502 97.9763 107.275C95.4673 111.243 92.0934 114.591 88.107 117.07C84.1206 119.549 79.6251 121.095 74.957 121.59C70.2889 122.086 65.5691 121.519 61.1511 119.932C56.733 118.346 52.7311 115.78 49.4449 112.428C44.1983 107.275 41.2002 100.623 40.4507 93.69C39.7011 86.8506 36.9841 80.386 32.2059 75.6078C26.7719 70.2675 26.7719 61.2733 32.2059 55.8392ZM71.5557 131.166C60.594 131.166 50.3818 126.95 42.7929 119.174C36.2346 112.428 32.1122 103.996 31.0817 94.8143C30.8006 92.0036 29.9574 88.3497 27.7088 84.9768C22.0874 92.7531 18.7146 102.122 18.7146 112.428C18.7146 127.793 26.2098 141.378 37.7336 149.904H159.25V140.535C159.25 106.807 136.858 78.2311 106.221 68.8621C114.559 81.9787 114.372 99.4988 105.846 112.428C98.3511 124.139 85.4219 131.166 71.5557 131.166ZM119.712 52.0916H131.611C139.762 52.0916 146.882 57.8067 146.882 68.0189V74.952H158.594V65.583C158.594 51.5295 146.133 40.8488 131.611 40.8488H119.712C111.936 40.8488 105.284 33.1663 105.284 25.2963C105.284 17.4263 111.936 11.6176 119.712 11.6176V0C105.284 0 93.6666 11.6176 93.6666 26.0458C93.6666 40.4741 105.284 52.0916 119.712 52.0916ZM23.3991 51.9979C23.9612 51.061 24.7107 50.1241 25.5539 49.1872L30.4258 44.3154C31.269 43.4722 32.2059 42.8163 33.1428 42.1605L19.9325 28.7628C21.2442 26.2332 20.7758 22.954 18.7146 20.7992C17.3729 19.4932 15.5745 18.7624 13.7022 18.7624C11.8298 18.7624 10.0314 19.4932 8.68975 20.7992C7.37809 22.1108 6.72226 23.7036 6.62857 25.39C4.94215 25.4837 3.34942 26.1395 2.03776 27.4512C-0.679252 30.1682 -0.679252 34.6653 2.03776 37.476C4.19263 39.5372 7.37809 40.0056 10.0014 38.694L23.3991 51.9979ZM153.534 22.3919C158.313 17.6137 161.311 11.1491 161.311 3.93498H149.599C149.599 11.7112 143.041 18.2695 135.265 18.2695V29.8871C152.691 29.8871 166.37 44.128 166.37 61.5543V84.321H177.988V61.5543C178.034 53.3818 175.761 45.3638 171.433 38.4315C167.104 31.4993 160.898 25.9374 153.534 22.3919ZM28.0836 178.011H159.25C169.649 178.011 177.988 169.673 177.988 159.273H9.34558C9.34558 164.243 11.3198 169.009 14.8338 172.523C18.3479 176.037 23.1139 178.011 28.0836 178.011Z" fill="#7C6A46"/>
</svg>
