<svg width="214" height="128" viewBox="0 0 214 128" fill="none" xmlns="http://www.w3.org/2000/svg">
<path d="M37.3333 10.6667C37.3333 4.76667 42.1 0 48 0H53.3333C59.2333 0 64 4.76667 64 10.6667V117.333C64 123.233 59.2333 128 53.3333 128H48C42.1 128 37.3333 123.233 37.3333 117.333V106.667H21.3333C15.4333 106.667 10.6667 101.9 10.6667 96V74.6667C4.76667 74.6667 0 69.9 0 64C0 58.1 4.76667 53.3333 10.6667 53.3333V32C10.6667 26.1 15.4333 21.3333 21.3333 21.3333H37.3333V10.6667ZM176 10.6667V21.3333H192C197.9 21.3333 202.667 26.1 202.667 32V53.3333C208.567 53.3333 213.333 58.1 213.333 64C213.333 69.9 208.567 74.6667 202.667 74.6667V96C202.667 101.9 197.9 106.667 192 106.667H176V117.333C176 123.233 171.233 128 165.333 128H160C154.1 128 149.333 123.233 149.333 117.333V10.6667C149.333 4.76667 154.1 0 160 0H165.333C171.233 0 176 4.76667 176 10.6667ZM138.667 53.3333V74.6667H74.6667V53.3333H138.667Z" fill="#7C6A46"/>
</svg>
