<svg width="209" height="154" viewBox="0 0 209 154" fill="none" xmlns="http://www.w3.org/2000/svg">
<path d="M140.88 0C139.319 0 134.819 2.0482 134.819 2.0482L88.5324 25.4562C82.3599 27.8945 79.9216 37.7315 83.6279 42.6499L97.1432 62.2681L41.8279 90.5388L69.6667 111.439L104.528 90.5388L139.361 111.439L153.322 97.4776L111.522 41.7443L147.15 20.4263C154.507 16.72 153.322 10.6172 153.322 6.91093C153.267 3.98493 148.306 0 140.88 0ZM170.711 41.8C167.508 41.7973 164.336 42.4254 161.376 43.6486C158.416 44.8718 155.725 46.6661 153.459 48.929C151.192 51.1919 149.393 53.8791 148.165 56.8372C146.936 59.7953 146.303 62.9664 146.3 66.1694C146.297 69.3724 146.925 72.5445 148.149 75.5048C149.372 78.465 151.166 81.1553 153.429 83.4221C155.692 85.6889 158.379 87.4877 161.337 88.716C164.295 89.9443 167.466 90.5779 170.669 90.5806C177.138 90.5861 183.344 88.0218 187.922 83.4516C192.5 78.8815 195.075 72.6799 195.081 66.2112C195.086 59.7425 192.522 53.5365 187.952 48.9585C183.381 44.3805 177.18 41.8055 170.711 41.8ZM34.8333 111.467L0 132.367V153.267L34.8333 132.367L69.6667 153.267L104.528 132.367L139.361 153.267L167.2 132.367L209 153.267V132.367L167.2 111.467L139.361 132.367L104.528 111.467L69.6667 132.367L34.8333 111.467Z" fill="#7C6A46"/>
</svg>
