<svg width="156" height="195" viewBox="0 0 156 195" fill="none" xmlns="http://www.w3.org/2000/svg">
<path d="M54.99 140.01C67.665 152.685 88.335 152.685 101.01 140.01C113.685 127.335 113.685 106.665 101.01 93.99L54.99 140.01ZM136.5 0.0974999L19.5 0C8.6775 0 0 8.6775 0 19.5V175.5C0 186.323 8.6775 195 19.5 195H136.5C147.323 195 156 186.323 156 175.5V19.5C156 8.6775 147.323 0.0974999 136.5 0.0974999ZM68.25 29.25C73.6125 29.25 78 33.6375 78 39C78 44.3625 73.6125 48.75 68.25 48.75C62.8875 48.75 58.5 44.3625 58.5 39C58.5 33.6375 62.8875 29.25 68.25 29.25ZM39 29.25C44.3625 29.25 48.75 33.6375 48.75 39C48.75 44.3625 44.3625 48.75 39 48.75C33.6375 48.75 29.25 44.3625 29.25 39C29.25 33.6375 33.6375 29.25 39 29.25ZM78 165.75C51.09 165.75 29.25 143.91 29.25 117C29.25 90.09 51.09 68.25 78 68.25C104.91 68.25 126.75 90.09 126.75 117C126.75 143.91 104.91 165.75 78 165.75Z" fill="#7C6A46"/>
</svg>
