<svg width="202" height="149" viewBox="0 0 202 149" fill="none" xmlns="http://www.w3.org/2000/svg">
<path d="M196.581 69.6019C187.654 29.2459 174.221 7.70639 154.293 1.8228C150.104 0.594097 145.759 -0.0197473 141.394 0.000484226C135.624 0.000484226 130.599 1.40615 125.283 2.89598C118.878 4.69304 111.601 6.7342 100.991 6.7342C90.3815 6.7342 83.1007 4.69725 76.6826 2.90019C71.363 1.40615 66.3421 0.000484226 60.589 0.000484226C56.075 -0.0151678 51.5807 0.596722 47.2352 1.81859C27.4128 7.67693 13.9875 29.208 4.9306 69.5766C-4.80805 113.018 -0.0144795 140.445 18.3728 146.808C20.8932 147.697 23.5452 148.155 26.2176 148.163C38.8138 148.163 48.9144 137.671 55.8165 129.082C63.615 119.36 72.7434 114.427 100.991 114.427C126.222 114.427 136.663 117.849 145.682 129.082C151.351 136.144 156.709 141.085 162.054 144.195C169.162 148.328 176.266 149.245 183.164 146.876C194.03 143.168 200.259 133.366 201.682 117.735C202.763 105.749 201.097 90.0051 196.581 69.6019ZM80.7902 67.3377H67.3227V80.8051C67.3227 82.591 66.6133 84.3038 65.3505 85.5666C64.0876 86.8294 62.3749 87.5388 60.589 87.5388C58.8031 87.5388 57.0904 86.8294 55.8275 85.5666C54.5647 84.3038 53.8553 82.591 53.8553 80.8051V67.3377H40.3878C38.602 67.3377 36.8892 66.6282 35.6264 65.3654C34.3636 64.1026 33.6541 62.3899 33.6541 60.604C33.6541 58.8181 34.3636 57.1053 35.6264 55.8425C36.8892 54.5797 38.602 53.8702 40.3878 53.8702H53.8553V40.4028C53.8553 38.6169 54.5647 36.9042 55.8275 35.6413C57.0904 34.3785 58.8031 33.6691 60.589 33.6691C62.3749 33.6691 64.0876 34.3785 65.3505 35.6413C66.6133 36.9042 67.3227 38.6169 67.3227 40.4028V53.8702H80.7902C82.5761 53.8702 84.2888 54.5797 85.5516 55.8425C86.8144 57.1053 87.5239 58.8181 87.5239 60.604C87.5239 62.3899 86.8144 64.1026 85.5516 65.3654C84.2888 66.6282 82.5761 67.3377 80.7902 67.3377ZM116.142 69.0211C114.477 69.0211 112.85 68.5275 111.466 67.6026C110.082 66.6777 109.003 65.3631 108.366 63.8251C107.729 62.287 107.562 60.5946 107.887 58.9619C108.212 57.3291 109.013 55.8293 110.19 54.6521C111.368 53.475 112.867 52.6733 114.5 52.3485C116.133 52.0238 117.825 52.1905 119.363 52.8275C120.901 53.4646 122.216 54.5435 123.141 55.9276C124.066 57.3118 124.559 58.9392 124.559 60.604C124.559 62.8363 123.673 64.9773 122.094 66.5558C120.516 68.1343 118.375 69.0211 116.142 69.0211ZM134.66 87.5388C132.994 87.5388 131.366 87.0446 129.981 86.1188C128.597 85.193 127.518 83.8772 126.882 82.3379C126.245 80.7987 126.08 79.1052 126.406 77.4718C126.733 75.8385 127.536 74.3387 128.716 73.1624C129.895 71.9861 131.397 71.1861 133.031 70.8637C134.665 70.5413 136.358 70.711 137.896 71.3513C139.433 71.9916 140.746 73.0737 141.669 74.4607C142.591 75.8477 143.081 77.4771 143.077 79.1427C143.072 81.3715 142.182 83.507 140.604 85.081C139.026 86.6549 136.889 87.5389 134.66 87.5388ZM134.66 50.5034C132.995 50.5034 131.368 50.0097 129.984 49.0848C128.599 48.16 127.521 46.8454 126.884 45.3073C126.246 43.7693 126.08 42.0769 126.405 40.4441C126.729 38.8114 127.531 37.3116 128.708 36.1344C129.885 34.9573 131.385 34.1556 133.018 33.8308C134.651 33.506 136.343 33.6727 137.881 34.3098C139.419 34.9469 140.734 36.0257 141.659 37.4099C142.583 38.7941 143.077 40.4215 143.077 42.0862C143.077 44.3186 142.19 46.4595 140.612 48.0381C139.033 49.6166 136.892 50.5034 134.66 50.5034ZM153.178 69.0211C151.513 69.0211 149.886 68.5275 148.501 67.6026C147.117 66.6777 146.038 65.3631 145.401 63.8251C144.764 62.287 144.597 60.5946 144.922 58.9619C145.247 57.3291 146.049 55.8293 147.226 54.6521C148.403 53.475 149.903 52.6733 151.536 52.3485C153.168 52.0238 154.861 52.1905 156.399 52.8275C157.937 53.4646 159.251 54.5435 160.176 55.9276C161.101 57.3118 161.595 58.9392 161.595 60.604C161.595 62.8363 160.708 64.9773 159.13 66.5558C157.551 68.1343 155.41 69.0211 153.178 69.0211Z" fill="#7C6A46"/>
</svg>
