<svg width="187" height="182" viewBox="0 0 187 182" fill="none" xmlns="http://www.w3.org/2000/svg">
<path d="M134.002 129.833C125.109 136.249 114.262 139.375 103.319 138.676H77.8614V181.552H52.4039V60.964H104.927C115.379 60.4098 125.673 63.6981 133.868 70.2091C137.692 73.9115 140.648 78.4149 142.524 83.3957C144.401 88.3765 145.151 93.7111 144.721 99.0162C145.41 104.631 144.802 110.328 142.944 115.671C141.085 121.013 138.026 125.858 134.002 129.833ZM113.904 86.4215C110.032 83.5825 105.3 82.1631 100.505 82.4018H77.8614V117.908H100.505C105.345 118.165 110.112 116.639 113.904 113.621C115.599 111.848 116.905 109.74 117.735 107.433C118.566 105.125 118.904 102.668 118.727 100.222C119.039 97.7057 118.766 95.1513 117.93 92.7577C117.093 90.364 115.715 88.1957 113.904 86.4215ZM186.391 50.379C187.124 48.7782 187.198 46.9528 186.597 45.2979C185.995 43.6429 184.766 42.2914 183.175 41.5359L93.8058 0L3.90067 41.5359C3.10008 41.9054 2.38011 42.429 1.78186 43.0767C1.18362 43.7245 0.718814 44.4837 0.413989 45.3111C0.109165 46.1385 -0.0297107 47.0178 0.0052931 47.8988C0.0402969 48.7799 0.248494 49.6454 0.617998 50.446C0.987501 51.2466 1.51107 51.9666 2.15882 52.5648C2.80657 53.1631 3.56581 53.6279 4.39319 53.9327C5.22057 54.2375 6.09989 54.3764 6.98094 54.3414C7.862 54.3064 8.72753 54.0982 9.52812 53.7287L93.8058 14.7385L178.083 53.5947C179.684 54.3285 181.51 54.4025 183.165 53.8007C184.82 53.1989 186.171 51.9697 186.927 50.379H186.391Z" fill="#7C6A46"/>
</svg>
