<svg width="182" height="182" viewBox="0 0 182 182" fill="none" xmlns="http://www.w3.org/2000/svg">
<path d="M91 41.3636C104.164 41.3636 116.79 46.5932 126.098 55.9018C135.407 65.2104 140.636 77.8356 140.636 91C140.636 109.365 130.626 125.415 115.818 134.018V148.909C115.818 151.103 114.947 153.207 113.395 154.759C111.844 156.31 109.74 157.182 107.545 157.182H74.4545C72.2605 157.182 70.1563 156.31 68.6048 154.759C67.0534 153.207 66.1818 151.103 66.1818 148.909V134.018C51.3736 125.415 41.3636 109.365 41.3636 91C41.3636 77.8356 46.5932 65.2104 55.9018 55.9018C65.2104 46.5932 77.8356 41.3636 91 41.3636ZM107.545 165.455V173.727C107.545 175.921 106.674 178.026 105.122 179.577C103.571 181.128 101.467 182 99.2727 182H82.7273C80.5332 182 78.429 181.128 76.8776 179.577C75.3261 178.026 74.4545 175.921 74.4545 173.727V165.455H107.545ZM157.182 82.7273H182V99.2727H157.182V82.7273ZM0 82.7273H24.8182V99.2727H0V82.7273ZM99.2727 0V24.8182H82.7273V0H99.2727ZM32.4291 20.6818L50.05 38.3855L38.3027 50.05L20.6818 32.5118L32.4291 20.6818ZM131.95 38.3027L149.488 20.6818L161.318 32.5118L143.697 50.05L131.95 38.3027Z" fill="#7C6A46"/>
</svg>
